<?xml version="1.0" encoding="utf-8"?>
<!-- Generator: Adobe Illustrator 25.1.0, SVG Export Plug-In . SVG Version: 6.00 Build 0)  -->
<svg version="1.1" id="Layer_1" xmlns="http://www.w3.org/2000/svg" xmlns:xlink="http://www.w3.org/1999/xlink" x="0px" y="0px"
	 viewBox="0 0 155 38.1" style="enable-background:new 0 0 155 38.1;" xml:space="preserve">
<path d="M3.6,37.4c2.4-2,4.9-3.9,7.3-6c6.7-5.7,7.6-15.8,1.8-22.6c-0.5-0.5-0.9-1-1.5-1.5C9.1,5.2,6.4,3.5,3.6,1.2h25v17.2l8.5-8.1
	l8.4,7.1V1.2h25.6c-3,2.4-6,4.3-8.2,6.8c-6.2,7.2-6.1,15-0.3,21.8c2.4,2.9,5.8,5,8.7,7.5H45.8L37.4,28L29,37.4H3.6z"/>
<path d="M83.8,37.4c2.4-2,5-3.9,7.3-6c7.2-6.4,7.7-17.1,0.2-24.1c-2.1-2-4.6-3.6-7.4-5.7c7.8-1.3,15.6-0.4,23.4-0.5
	c1.1,0,2.2,1.3,3.2,2.2c4.8,4.5,9.5,9,14.8,14.2c1.5-5.5,0.1-10.7,1-16.1H151c-3.2,2.7-6.7,5-9.3,8c-4.7,5.3-4.1,15.1,1,20.5
	c2.6,2.8,5.8,5,8.8,7.5h-25.4l-16.9-17.6v17.7H83.8z"/>
<path d="M86,19.2c0,4.2-3.9,8-8.3,8s-8.4-3.5-8.6-7.7c-0.2-4.6,3.4-8.4,8-8.5c0.3,0,0.5,0,0.8,0C82.3,11.2,85.9,14.8,86,19.2z"/>
</svg>
