<svg id="Layer_1" data-name="Layer 1" xmlns="http://www.w3.org/2000/svg" viewBox="0 0 20 20"><defs><style>.cls-1{fill:#fff;}.cls-2{fill:#c1c1c1;}</style></defs><path class="cls-1" d="M16.9,10a6.91,6.91,0,1,1-7-6.91A6.93,6.93,0,0,1,16.9,10ZM10,16a5.92,5.92,0,1,0-5.94-5.9A5.91,5.91,0,0,0,10,16Z"/><path class="cls-1" d="M5.19,10.06A4.8,4.8,0,1,1,10,14.84,4.83,4.83,0,0,1,5.19,10.06Zm7.12-2.77c-.56.57-1.09,1.09-1.6,1.63a.47.47,0,0,1-.52.16.93.93,0,0,0-1.08.48,1,1,0,0,0,1.35,1.36A.94.94,0,0,0,11,9.82a.44.44,0,0,1,.15-.5c.54-.52,1.08-1.06,1.62-1.6Z"/><path class="cls-2" d="M17.05,6.37a9.24,9.24,0,0,0-3.32-3.28,7.48,7.48,0,0,0-5-1,7.65,7.65,0,0,0-6.3,5.35,7.85,7.85,0,0,0,.26,5.74,9,9,0,0,0,1.41,2.24,7.5,7.5,0,0,0,2.49,1.87,6.51,6.51,0,0,0,1.31.44,9.38,9.38,0,0,0,4.71-.19A7.62,7.62,0,0,0,17,13.9a8.08,8.08,0,0,0,1-3.69A7.4,7.4,0,0,0,17.05,6.37ZM10,17A6.91,6.91,0,1,1,16.9,10,6.93,6.93,0,0,1,10,17Z"/><path class="cls-2" d="M10,4.12a5.92,5.92,0,1,0,5.9,6A5.92,5.92,0,0,0,10,4.12Zm0,10.72A4.8,4.8,0,1,1,14.78,10,4.82,4.82,0,0,1,10,14.84Z"/><path class="cls-2" d="M10.71,8.92a.47.47,0,0,1-.52.16.93.93,0,0,0-1.08.48,1,1,0,0,0,1.35,1.36A.94.94,0,0,0,11,9.82a.44.44,0,0,1,.15-.5c.54-.52,1.08-1.06,1.62-1.6l-.41-.43C11.75,7.86,11.22,8.38,10.71,8.92Z"/></svg>