<svg id="Layer_1" data-name="Layer 1" xmlns="http://www.w3.org/2000/svg" viewBox="0 0 16.54 28.21"><defs><style>.cls-1{fill:#fff;}.cls-2{fill:none;}.cls-3{fill:#c1c1c1;}</style></defs><path class="cls-1" d="M15,17.41l-.26,0A3.92,3.92,0,0,0,15,17.1a4.62,4.62,0,0,0,1-3.21l0-.7-.67.21a5.39,5.39,0,0,0-2.14,1.15,3.08,3.08,0,0,0-.81,1.22,4.69,4.69,0,0,0-.33-.68l-.33-.55-.45.46-.14.14a2.18,2.18,0,0,0-.3.31l-.13.16a9.28,9.28,0,0,0-.64.87,3.07,3.07,0,0,0,.38,3.71l.08.09.33.38H11l.54.07a6,6,0,0,0,.81.1h.21a2.62,2.62,0,0,0,2.14-1c.25-.31.47-.64.69-1a3.14,3.14,0,0,0,.25-.45l.49-.9Z"/><path class="cls-1" d="M12.72,23.39c-.16-.49-.35-1-.54-1.45-.08-.2-.19-.39-.3-.61l-.51-1-.8,1c-.18.21-.33.41-.48.61A3.89,3.89,0,0,0,10,21a4.66,4.66,0,0,0-1.37-2.3V11.76A3.15,3.15,0,0,0,7.48,9.2a2.1,2.1,0,0,1-.76-1.37c-.09-1-.11-1.93-.13-2.8l0-.56a8.56,8.56,0,0,1,0-1.13l0-.24.06-.32A2.8,2.8,0,0,0,6.52,1,1.1,1.1,0,0,0,5.67.36c-.34,0-.67,0-1,0s-.67,0-1,0A1.27,1.27,0,0,0,2.77,1a2.23,2.23,0,0,0-.15,1.41,2.89,2.89,0,0,1,0,.29s0,.08,0,.08v.51c0,1.27,0,2.57,0,3.83l0,.42a2.31,2.31,0,0,1-.82,1.64,3.41,3.41,0,0,0-1.15,2.5V26.29A1.41,1.41,0,0,0,2.06,27.7H7.9a4.07,4.07,0,0,0,1.67.36,3.79,3.79,0,0,0,.58,0,1.93,1.93,0,0,0,1.19-.56,5.71,5.71,0,0,0,1.31-1.81,3.23,3.23,0,0,0,.12-2.08C12.75,23.5,12.74,23.44,12.72,23.39Z"/><path class="cls-2" d="M4.74,23.17h0Z"/><path class="cls-1" d="M4.79,14.82A33.28,33.28,0,0,1,8.25,15v-.7a30.75,30.75,0,0,0-3.46-.21h0a34.36,34.36,0,0,0-3.5.19c0,.15,0,.54,0,.69,1.16-.1,2.33-.17,3.49-.17Z"/><path d="M8.25,18.2V15h0V18.2Z"/><path d="M1.25,15h0c0,1.2,0,2.4,0,3.6V15Z"/><path d="M5,22.69H5Z"/><path class="cls-3" d="M4.79,14.1a30.75,30.75,0,0,1,3.46.21V11.67a2.67,2.67,0,0,0-1-2.18,2.5,2.5,0,0,1-.94-1.7C6.24,6.85,6.21,5.9,6.19,5a16.52,16.52,0,0,1,0-1.72l.09-.65a2.34,2.34,0,0,0-.07-1.48A.66.66,0,0,0,5.74.77,14,14,0,0,0,3.8.77a.81.81,0,0,0-.49.41,2.26,2.26,0,0,0-.05,1.41v.63c0,1.42,0,2.85-.06,4.27a2.78,2.78,0,0,1-1,2,2.94,2.94,0,0,0-1,2.13V14.3a34.36,34.36,0,0,1,3.5-.19Z"/><path class="cls-3" d="M6.82,20.83a3.51,3.51,0,0,0,2.35,2.82A3.63,3.63,0,0,0,9.62,21a5.49,5.49,0,0,0-2.5-3.1A6.58,6.58,0,0,0,6.82,20.83Z"/><path class="cls-3" d="M11.82,22c-.12-.27-.27-.52-.44-.86-.35.43-.66.78-.93,1.16A2.63,2.63,0,0,0,9.9,24a9.54,9.54,0,0,0,.9,3.29c.38-.42.73-.76,1-1.15a2.82,2.82,0,0,0,.51-2.71C12.19,23,12,22.51,11.82,22Z"/><path class="cls-3" d="M1.25,18.59v4.1H6.8a3.8,3.8,0,0,1-.73-1.8,6.92,6.92,0,0,1,.32-3.11l.2-.86.57.41c.37.27.74.55,1.09.86V15a33.28,33.28,0,0,0-3.46-.19h0c-1.16,0-2.33.07-3.49.17v3.6Z"/><path class="cls-3" d="M8,23.72a5.25,5.25,0,0,0-2.07-.5c.06.28.08.52.15.75.16.51.31,1,.52,1.53a3.42,3.42,0,0,0,3.63,1.93,10,10,0,0,0-1.07-2.57A2.72,2.72,0,0,0,8,23.72Z"/><path class="cls-3" d="M14.67,16.77a4.18,4.18,0,0,0,.88-2.9,5.11,5.11,0,0,0-2,1.05,2.67,2.67,0,0,0-.77,2.68A2.74,2.74,0,0,0,14.67,16.77Z"/><path class="cls-3" d="M12.91,18.22a7.07,7.07,0,0,0-1.68,2c.42.06.79.13,1.15.16a2.16,2.16,0,0,0,1.93-.84q.34-.45.66-.93c.12-.19.22-.39.36-.64-.42,0-.78-.08-1.13-.09A2,2,0,0,0,12.91,18.22Z"/><path class="cls-3" d="M12.05,18.08a2.15,2.15,0,0,0,.22-1.22,4.07,4.07,0,0,0-.58-1.51c-.15.16-.29.27-.4.41a11.58,11.58,0,0,0-.74,1,2.59,2.59,0,0,0,.33,3.1A7.45,7.45,0,0,0,12.05,18.08Z"/><path class="cls-3" d="M5.37,24.36l-.07-.24a3.15,3.15,0,0,1-.12-.55l0-.23H1.25V26.2a.91.91,0,0,0,.91.91H6.94a3.63,3.63,0,0,1-1.1-1.41C5.65,25.26,5.51,24.8,5.37,24.36Z"/></svg>