<svg id="Layer_1" data-name="Layer 1" xmlns="http://www.w3.org/2000/svg" viewBox="0 0 20 20"><defs><style>.cls-1{fill:#fff;}.cls-2{fill:#eab76c;}</style></defs><path class="cls-1" d="M15.9,11A8.49,8.49,0,0,0,15.78,10c0-.17,0-.34-.07-.53L15.52,8l-1.24.75c-.24.15-.46.29-.68.41l-.69.42a5.81,5.81,0,0,0,.23-1.1A9.94,9.94,0,0,0,11,1.68L10.07.46l-1,1.38a10.51,10.51,0,0,0-1.95,4.5,6.14,6.14,0,0,0,.17,3.25,10.29,10.29,0,0,0-1.59-.82L4.64,8.3,4.45,9.49q0,.21-.06.39a7.82,7.82,0,0,0-.13.92v.4a21.73,21.73,0,0,0,0,2.29,6.37,6.37,0,0,0,5.17,5.73l.68.06a7.18,7.18,0,0,0,3.38-1.48,5.57,5.57,0,0,0,2.48-4.25v0C16,12.79,16,12,15.9,11Z"/><path class="cls-2" d="M12.26,7.83c.28-2.43-.85-4.4-2.21-6.38A11.21,11.21,0,0,0,7.9,5.9,5.94,5.94,0,0,0,10,11.76,6.16,6.16,0,0,0,12.26,7.83Z"/><path class="cls-2" d="M15.19,10.71c0-.5-.12-1-.2-1.62-.81.49-1.5.87-2.15,1.32A4.38,4.38,0,0,0,11,12.77a15.93,15.93,0,0,0-.45,5.78c.85-.45,1.6-.8,2.3-1.24a4.81,4.81,0,0,0,2.38-4C15.25,12.42,15.23,11.56,15.19,10.71Z"/><path class="cls-2" d="M8,11.17a8.81,8.81,0,0,0-3-2c-.07.48-.17.88-.19,1.28,0,.91-.1,1.83,0,2.74a5.8,5.8,0,0,0,4.68,5.18,17,17,0,0,0-.22-4.73A4.6,4.6,0,0,0,8,11.17Z"/></svg>