<svg id="Layer_1" data-name="Layer 1" xmlns="http://www.w3.org/2000/svg" viewBox="0 0 20 20"><defs><style>.cls-1{fill:#fff;}.cls-2{fill:#eab76c;}</style></defs><path class="cls-1" d="M18.29,12.28l-.06-.47a3,3,0,0,0-2-2.21l0-.13a8.74,8.74,0,0,0-1.9-3.76h.32l-.08-.57c0-.14-.57-3.46-5.78-3.46S3,5,3,5.13l-.09.58h.33C2.21,7-2,13.29,3.87,18.86L4,19H17.26l.15-.16C20.4,15.49,18.9,13,18.29,12.28Z"/><path class="cls-2" d="M11.14,11.87h6.59s-.28-2.08-3.28-2.08S11.14,11.87,11.14,11.87Z"/><path class="cls-2" d="M17.73,12.41H11.15s-2.61,2.39.7,6.08H17C20.35,14.8,17.73,12.41,17.73,12.41Z"/><path class="cls-2" d="M8.79,2.18c-4.83,0-5.34,3-5.34,3H14.07S13.63,2.18,8.79,2.18Z"/><path class="cls-2" d="M9.71,14.45a3.66,3.66,0,0,1,1-2.35s.24-3.61,5-2.52a8.08,8.08,0,0,0-2-3.78h-10s-5.84,6.75.47,12.69h6.92A4.83,4.83,0,0,1,9.71,14.45Z"/></svg>